<?xml version="1.0" standalone="no"?>
<!DOCTYPE svg PUBLIC "-//W3C//DTD SVG 20010904//EN"
 "http://www.w3.org/TR/2001/REC-SVG-20010904/DTD/svg10.dtd">
<svg version="1.0" xmlns="http://www.w3.org/2000/svg"
 width="400.000000pt" height="400.000000pt" viewBox="0 0 400.000000 400.000000"
 preserveAspectRatio="xMidYMid meet">
<metadata>
Created by potrace 1.11, written by Peter Selinger 2001-2013
</metadata>
<g transform="translate(0.000000,400.000000) scale(0.100000,-0.100000)"
fill="#000000" stroke="none">
<path d="M53 3979 c-17 -11 -36 -34 -42 -51 -8 -22 -11 -596 -11 -1936 0
-1896 0 -1905 20 -1937 11 -18 35 -38 52 -44 46 -16 3831 -15 3861 1 27 14 41
28 55 55 9 16 12 504 12 1933 0 1752 -1 1914 -16 1940 -9 15 -29 35 -44 44
-26 15 -188 16 -1942 16 -1905 0 -1913 0 -1945 -21z"/>
</g>
</svg>
